STARTFONT 2.1
FONT -FontForge-Symbol-Regular-R-Normal--31-310-72-72-P-155-MacRoman-0
SIZE 31 72 72
FONTBOUNDINGBOX 253 31 0 -8
COMMENT "Generated by fontforge, http://fontforge.sourceforge.net"
STARTPROPERTIES 30
FOUNDRY "FontForge"
FAMILY_NAME "Symbol"
WEIGHT_NAME "Regular"
SLANT "R"
SETWIDTH_NAME "Normal"
ADD_STYLE_NAME ""
PIXEL_SIZE 31
POINT_SIZE 310
RESOLUTION_X 72
RESOLUTION_Y 72
SPACING "P"
AVERAGE_WIDTH 155
CHARSET_REGISTRY "MacRoman"
CHARSET_ENCODING "0"
FONTNAME_REGISTRY ""
CHARSET_COLLECTIONS "MacRoman"
FONT_NAME "Symbol"
FACE_NAME "Symbol"
FONT_VERSION "001.000"
FONT_ASCENT 23
FONT_DESCENT 8
UNDERLINE_POSITION -3
UNDERLINE_THICKNESS 2
X_HEIGHT 18
CAP_HEIGHT 15
RAW_ASCENT 800
RAW_DESCENT 200
NORM_SPACE 6
AVG_LOWERCASE_WIDTH 1086
AVG_UPPERCASE_WIDTH 448
ENDPROPERTIES
CHARS 190
STARTCHAR space
ENCODING 32
SWIDTH 250 0
DWIDTH 6 0
BBX 1 1 0 -8
BITMAP
00
ENDCHAR
STARTCHAR exclam
ENCODING 33
SWIDTH 333 0
DWIDTH 8 0
BBX 3 16 3 0
BITMAP
40
E0
E0
E0
E0
E0
E0
40
40
40
40
40
00
00
E0
E0
ENDCHAR
STARTCHAR quotedbl
ENCODING 34
SWIDTH 713 0
DWIDTH 17 0
BBX 15 16 1 0
BITMAP
8002
8002
4004
4004
3FF8
2008
1010
1010
0820
0820
0440
0440
0280
0280
0100
0100
ENDCHAR
STARTCHAR numbersign
ENCODING 35
SWIDTH 500 0
DWIDTH 12 0
BBX 11 16 0 0
BITMAP
0880
0880
0880
0880
0880
7FE0
1100
1100
1100
1100
FFC0
2200
2200
2200
2200
2200
ENDCHAR
STARTCHAR dollar
ENCODING 36
SWIDTH 549 0
DWIDTH 13 0
BBX 11 16 1 0
BITMAP
FFE0
0020
0020
0020
0020
0020
0020
FFE0
0020
0020
0020
0020
0020
0020
0020
FFE0
ENDCHAR
STARTCHAR percent
ENCODING 37
SWIDTH 833 0
DWIDTH 20 0
BBX 15 17 3 0
BITMAP
000C
1C78
7390
6230
C260
C440
CCC0
F980
7100
031C
0672
0462
0CC2
18C4
10CC
30F8
6070
ENDCHAR
STARTCHAR ampersand
ENCODING 38
SWIDTH 778 0
DWIDTH 19 0
BBX 17 16 1 0
BITMAP
03C000
066000
0C6000
0C6000
0C4000
0C8000
073F80
0E0E00
330C00
618800
C0D000
C06000
C07000
E0D880
7F8F00
3E0600
ENDCHAR
STARTCHAR quotesingle
ENCODING 39
SWIDTH 439 0
DWIDTH 11 0
BBX 8 13 2 0
BITMAP
F8
06
02
03
03
03
3F
03
03
03
02
06
F8
ENDCHAR
STARTCHAR parenleft
ENCODING 40
SWIDTH 333 0
DWIDTH 8 0
BBX 6 21 1 -5
BITMAP
04
08
10
30
20
60
40
C0
C0
C0
C0
C0
C0
C0
40
60
20
30
10
08
04
ENDCHAR
STARTCHAR parenright
ENCODING 41
SWIDTH 333 0
DWIDTH 8 0
BBX 6 21 1 -5
BITMAP
80
40
20
30
10
18
08
0C
0C
0C
0C
0C
0C
0C
08
18
10
30
20
40
80
ENDCHAR
STARTCHAR asterisk
ENCODING 42
SWIDTH 500 0
DWIDTH 12 0
BBX 7 10 2 3
BITMAP
10
10
92
54
38
38
54
92
10
10
ENDCHAR
STARTCHAR plus
ENCODING 43
SWIDTH 549 0
DWIDTH 13 0
BBX 11 11 1 1
BITMAP
0400
0400
0400
0400
0400
FFE0
0400
0400
0400
0400
0400
ENDCHAR
STARTCHAR comma
ENCODING 44
SWIDTH 250 0
DWIDTH 8 0
BBX 2 5 3 -3
BITMAP
C0
C0
40
40
80
ENDCHAR
STARTCHAR hyphen
ENCODING 45
SWIDTH 549 0
DWIDTH 13 0
BBX 12 1 0 6
BITMAP
FFF0
ENDCHAR
STARTCHAR period
ENCODING 46
SWIDTH 250 0
DWIDTH 8 0
BBX 2 2 3 0
BITMAP
C0
C0
ENDCHAR
STARTCHAR slash
ENCODING 47
SWIDTH 278 0
DWIDTH 7 0
BBX 5 16 1 0
BITMAP
08
08
08
10
10
10
20
20
20
20
40
40
40
80
80
80
ENDCHAR
STARTCHAR zero
ENCODING 48
SWIDTH 500 0
DWIDTH 12 0
BBX 10 16 1 0
BITMAP
1E00
3300
6180
6180
C0C0
C0C0
C0C0
C0C0
C0C0
C0C0
C0C0
C0C0
6180
6180
3300
1E00
ENDCHAR
STARTCHAR one
ENCODING 49
SWIDTH 500 0
DWIDTH 12 0
BBX 6 16 3 0
BITMAP
10
30
70
B0
30
30
30
30
30
30
30
30
30
30
30
FC
ENDCHAR
STARTCHAR two
ENCODING 50
SWIDTH 500 0
DWIDTH 12 0
BBX 11 16 0 0
BITMAP
1E00
7F00
4380
8180
0180
0180
0180
0300
0300
0600
0400
0800
1000
2020
7FC0
FF80
ENDCHAR
STARTCHAR three
ENCODING 51
SWIDTH 500 0
DWIDTH 12 0
BBX 9 16 1 0
BITMAP
1C00
7E00
C700
8300
0300
0600
0C00
1E00
0300
0180
0180
0180
0180
C300
E300
7C00
ENDCHAR
STARTCHAR four
ENCODING 52
SWIDTH 500 0
DWIDTH 12 0
BBX 11 16 0 0
BITMAP
0080
0180
0380
0780
0D80
1980
3180
6180
C180
FFE0
FFE0
0180
0180
0180
0180
0180
ENDCHAR
STARTCHAR five
ENCODING 53
SWIDTH 500 0
DWIDTH 12 0
BBX 11 16 0 0
BITMAP
0FE0
1FC0
1000
3000
2000
7C00
0F00
0380
0180
00C0
00C0
00C0
00C0
C180
E300
7C00
ENDCHAR
STARTCHAR six
ENCODING 54
SWIDTH 500 0
DWIDTH 12 0
BBX 10 16 1 0
BITMAP
0380
0E00
1800
3000
6000
6000
DE00
E180
C080
C0C0
C0C0
C0C0
C0C0
4080
6180
1E00
ENDCHAR
STARTCHAR seven
ENCODING 55
SWIDTH 500 0
DWIDTH 12 0
BBX 10 16 1 0
BITMAP
3FC0
7FC0
80C0
0180
0180
0180
0300
0300
0300
0600
0600
0C00
0C00
0C00
1800
1800
ENDCHAR
STARTCHAR eight
ENCODING 56
SWIDTH 500 0
DWIDTH 12 0
BBX 10 16 1 0
BITMAP
1E00
3300
6180
6180
6180
7300
3E00
1E00
3700
6380
C1C0
C0C0
C0C0
C0C0
6180
3F00
ENDCHAR
STARTCHAR nine
ENCODING 57
SWIDTH 500 0
DWIDTH 12 0
BBX 10 16 1 0
BITMAP
1E00
6180
4080
C0C0
C0C0
C0C0
C0C0
40C0
61C0
1EC0
0180
0180
0300
0600
1C00
7000
ENDCHAR
STARTCHAR colon
ENCODING 58
SWIDTH 278 0
DWIDTH 7 0
BBX 2 13 2 0
BITMAP
C0
C0
00
00
00
00
00
00
00
00
00
C0
C0
ENDCHAR
STARTCHAR semicolon
ENCODING 59
SWIDTH 278 0
DWIDTH 7 0
BBX 2 16 2 -3
BITMAP
C0
C0
00
00
00
00
00
00
00
00
00
C0
C0
40
40
80
ENDCHAR
STARTCHAR less
ENCODING 60
SWIDTH 549 0
DWIDTH 13 0
BBX 12 11 0 1
BITMAP
0030
00C0
0300
0C00
3000
C000
3000
0C00
0300
00C0
0030
ENDCHAR
STARTCHAR equal
ENCODING 61
SWIDTH 549 0
DWIDTH 13 0
BBX 12 5 0 4
BITMAP
FFF0
0000
0000
0000
FFF0
ENDCHAR
STARTCHAR greater
ENCODING 62
SWIDTH 549 0
DWIDTH 13 0
BBX 12 11 0 1
BITMAP
C000
3000
0C00
0300
00C0
0030
00C0
0300
0C00
3000
C000
ENDCHAR
STARTCHAR question
ENCODING 63
SWIDTH 444 0
DWIDTH 11 0
BBX 8 16 1 0
BITMAP
3C
66
C3
C3
E3
66
06
0C
08
18
10
10
00
00
18
18
ENDCHAR
STARTCHAR at
ENCODING 64
SWIDTH 549 0
DWIDTH 13 0
BBX 10 13 1 0
BITMAP
7840
8780
0000
0000
0000
0000
FFC0
0000
0000
0000
0000
0000
FFC0
ENDCHAR
STARTCHAR A
ENCODING 65
SWIDTH 722 0
DWIDTH 17 0
BBX 17 16 0 0
BITMAP
008000
008000
01C000
01C000
016000
026000
023000
043000
041800
081800
0FFC00
180C00
100C00
300600
200600
F81F80
ENDCHAR
STARTCHAR B
ENCODING 66
SWIDTH 667 0
DWIDTH 16 0
BBX 13 16 1 0
BITMAP
FF80
3060
3030
3030
3030
3030
3060
3FC0
3060
3030
3038
3038
3038
3030
3070
FFC0
ENDCHAR
STARTCHAR C
ENCODING 67
SWIDTH 722 0
DWIDTH 17 0
BBX 15 16 0 0
BITMAP
FC7E
3018
1810
0C20
0C20
0640
0340
0380
0180
02C0
04C0
0460
0830
1030
3018
FC7E
ENDCHAR
STARTCHAR D
ENCODING 68
SWIDTH 612 0
DWIDTH 15 0
BBX 15 16 0 0
BITMAP
0100
0100
0380
0380
04C0
04C0
0860
0860
1030
1030
2018
2018
400C
400C
8006
FFFE
ENDCHAR
STARTCHAR E
ENCODING 69
SWIDTH 611 0
DWIDTH 16 0
BBX 12 16 2 0
BITMAP
FFF0
3030
3010
3000
3000
3040
30C0
3FC0
30C0
3040
3000
3000
3010
3010
3030
FFF0
ENDCHAR
STARTCHAR F
ENCODING 70
SWIDTH 763 0
DWIDTH 18 0
BBX 16 16 1 0
BITMAP
07E0
0180
0FF0
318C
6186
4182
C183
C183
C183
4182
6186
318C
0FF0
0180
0180
07E0
ENDCHAR
STARTCHAR G
ENCODING 71
SWIDTH 603 0
DWIDTH 14 0
BBX 11 16 1 0
BITMAP
FFE0
3060
3020
3000
3000
3000
3000
3000
3000
3000
3000
3000
3000
3000
3000
FC00
ENDCHAR
STARTCHAR H
ENCODING 72
SWIDTH 722 0
DWIDTH 18 0
BBX 16 16 1 0
BITMAP
FC3F
300C
300C
300C
300C
300C
300C
3FFC
300C
300C
300C
300C
300C
300C
300C
FC3F
ENDCHAR
STARTCHAR I
ENCODING 73
SWIDTH 333 0
DWIDTH 8 0
BBX 6 16 1 0
BITMAP
FC
30
30
30
30
30
30
30
30
30
30
30
30
30
30
FC
ENDCHAR
STARTCHAR J
ENCODING 74
SWIDTH 631 0
DWIDTH 15 0
BBX 14 17 0 0
BITMAP
01C0
0260
0230
0230
0118
0118
3098
7858
9838
181C
1818
1818
1818
1830
0830
0C60
0380
ENDCHAR
STARTCHAR K
ENCODING 75
SWIDTH 722 0
DWIDTH 17 0
BBX 15 16 1 0
BITMAP
FC7E
3018
3030
3060
30C0
3180
3300
3600
3F00
3380
31C0
30E0
3070
3038
301C
FC7E
ENDCHAR
STARTCHAR L
ENCODING 76
SWIDTH 686 0
DWIDTH 16 0
BBX 16 16 0 0
BITMAP
0080
0080
01C0
01C0
01C0
0260
0260
0460
0430
0430
0818
0818
1018
100C
300C
FC7F
ENDCHAR
STARTCHAR M
ENCODING 77
SWIDTH 889 0
DWIDTH 22 0
BBX 19 16 2 0
BITMAP
F003E0
300380
380580
380580
2C0580
2C0980
260980
260980
231180
231180
219180
21A180
20E180
20E180
204180
F847E0
ENDCHAR
STARTCHAR N
ENCODING 78
SWIDTH 722 0
DWIDTH 18 0
BBX 16 16 1 0
BITMAP
E01F
3004
3804
3804
2C04
2604
2304
2184
2184
20C4
2064
2034
201C
201C
200C
F804
ENDCHAR
STARTCHAR O
ENCODING 79
SWIDTH 722 0
DWIDTH 18 0
BBX 15 16 1 0
BITMAP
07C0
1830
3018
600C
600C
C006
C006
C006
C006
C006
C006
600C
600C
3018
1830
07C0
ENDCHAR
STARTCHAR P
ENCODING 80
SWIDTH 768 0
DWIDTH 19 0
BBX 16 16 1 0
BITMAP
FFFF
300C
300C
300C
300C
300C
300C
300C
300C
300C
300C
300C
300C
300C
300C
FC3F
ENDCHAR
STARTCHAR Q
ENCODING 81
SWIDTH 741 0
DWIDTH 18 0
BBX 15 16 1 0
BITMAP
07C0
1830
3018
600C
600C
C006
C826
CFE6
CFE6
C826
C006
600C
600C
3018
1830
07C0
ENDCHAR
STARTCHAR R
ENCODING 82
SWIDTH 556 0
DWIDTH 14 0
BBX 12 16 1 0
BITMAP
FF80
30E0
3060
3070
3070
3070
3060
30E0
3F80
3000
3000
3000
3000
3000
3000
FC00
ENDCHAR
STARTCHAR S
ENCODING 83
SWIDTH 592 0
DWIDTH 15 0
BBX 12 16 1 0
BITMAP
FFF0
6030
3010
1800
0C00
0600
0300
0180
0100
0200
0400
0800
1000
2010
7FF0
FFF0
ENDCHAR
STARTCHAR T
ENCODING 84
SWIDTH 611 0
DWIDTH 15 0
BBX 14 16 0 0
BITMAP
FFFC
C30C
8304
8304
0300
0300
0300
0300
0300
0300
0300
0300
0300
0300
0300
0FC0
ENDCHAR
STARTCHAR U
ENCODING 85
SWIDTH 690 0
DWIDTH 17 0
BBX 15 16 1 0
BITMAP
FC3E
3808
1808
0C10
0C10
0620
0620
0340
03C0
0180
0180
0180
0180
0180
0180
07E0
ENDCHAR
STARTCHAR V
ENCODING 86
SWIDTH 439 0
DWIDTH 11 0
BBX 9 17 1 -5
BITMAP
0F00
3F80
6300
4000
8000
8000
8000
8000
C000
E000
7F00
1F80
0180
0080
1880
1F80
0F00
ENDCHAR
STARTCHAR W
ENCODING 87
SWIDTH 768 0
DWIDTH 19 0
BBX 16 16 1 0
BITMAP
07E0
1C38
381C
300C
700E
6006
6006
6006
6006
6006
2004
300C
1008
8811
7C3E
7C3E
ENDCHAR
STARTCHAR X
ENCODING 88
SWIDTH 645 0
DWIDTH 16 0
BBX 14 16 1 0
BITMAP
FFFC
FFFC
8004
8004
0000
0000
1020
1FE0
1FE0
1020
0000
0000
8004
C00C
FFFC
FFFC
ENDCHAR
STARTCHAR Y
ENCODING 89
SWIDTH 795 0
DWIDTH 19 0
BBX 16 16 1 0
BITMAP
87E1
4182
6186
6186
6186
6186
318C
399C
0FF0
0180
0180
0180
0180
0180
0180
07E0
ENDCHAR
STARTCHAR Z
ENCODING 90
SWIDTH 611 0
DWIDTH 16 0
BBX 14 16 1 0
BITMAP
FFFC
C018
8030
0060
00C0
00C0
0180
0300
0300
0600
0C00
1800
1800
3004
600C
FFFC
ENDCHAR
STARTCHAR bracketleft
ENCODING 91
SWIDTH 333 0
DWIDTH 8 0
BBX 5 21 1 -5
BITMAP
F8
C0
C0
C0
C0
C0
C0
C0
C0
C0
C0
C0
C0
C0
C0
C0
C0
C0
C0
C0
F8
ENDCHAR
STARTCHAR backslash
ENCODING 92
SWIDTH 863 0
DWIDTH 21 0
BBX 12 10 4 0
BITMAP
0600
0600
0000
0000
0000
0000
0000
0000
C030
C030
ENDCHAR
STARTCHAR bracketright
ENCODING 93
SWIDTH 333 0
DWIDTH 8 0
BBX 5 21 1 -5
BITMAP
F8
18
18
18
18
18
18
18
18
18
18
18
18
18
18
18
18
18
18
18
F8
ENDCHAR
STARTCHAR asciicircum
ENCODING 94
SWIDTH 658 0
DWIDTH 16 0
BBX 15 16 0 0
BITMAP
0100
0100
0100
0100
0100
0100
0100
0100
0100
0100
0100
0100
0100
0100
0100
FFFE
ENDCHAR
STARTCHAR underscore
ENCODING 95
SWIDTH 500 0
DWIDTH 12 0
BBX 12 1 0 -5
BITMAP
FFF0
ENDCHAR
STARTCHAR grave
ENCODING 96
SWIDTH 500 0
DWIDTH 12 0
BBX 12 1 0 17
BITMAP
FFF0
ENDCHAR
STARTCHAR a
ENCODING 97
SWIDTH 631 0
DWIDTH 15 0
BBX 14 13 0 0
BITMAP
1F00
708C
608C
C04C
C058
C058
C070
C070
C060
60E0
60F4
31BC
0E18
ENDCHAR
STARTCHAR b
ENCODING 98
SWIDTH 549 0
DWIDTH 13 0
BBX 10 23 1 -5
BITMAP
3E00
6300
C180
C180
C180
C180
C300
CE00
C380
C180
C0C0
C0C0
C0C0
C0C0
C0C0
C180
E380
DE00
C000
C000
C000
C000
C000
ENDCHAR
STARTCHAR c
ENCODING 99
SWIDTH 549 0
DWIDTH 13 0
BBX 12 18 0 -5
BITMAP
7060
F860
88C0
04C0
0580
0580
0700
0700
0E00
0E00
1A00
1A00
3200
3200
6200
6110
C1F0
C0E0
ENDCHAR
STARTCHAR d
ENCODING 100
SWIDTH 494 0
DWIDTH 12 0
BBX 10 18 1 0
BITMAP
1F00
2380
2180
3000
3800
1C00
0E00
0700
1B80
7180
60C0
C0C0
C0C0
C0C0
C0C0
4080
6180
1E00
ENDCHAR
STARTCHAR e
ENCODING 101
SWIDTH 439 0
DWIDTH 11 0
BBX 9 13 1 0
BITMAP
3F00
6380
C180
C000
C000
6000
3800
6000
C000
C000
C000
6080
3F00
ENDCHAR
STARTCHAR f
ENCODING 102
SWIDTH 521 0
DWIDTH 13 0
BBX 11 22 1 -5
BITMAP
0400
0400
0400
0400
1F00
3580
64C0
4440
C460
C460
C460
C460
C460
C460
4440
64C0
3580
1F00
0400
0400
0400
0400
ENDCHAR
STARTCHAR g
ENCODING 103
SWIDTH 411 0
DWIDTH 10 0
BBX 10 18 0 -5
BITMAP
40C0
E0C0
E0C0
B180
1180
1180
1100
0900
0A00
0A00
0A00
0400
0400
0400
0E00
0E00
0E00
0400
ENDCHAR
STARTCHAR h
ENCODING 104
SWIDTH 603 0
DWIDTH 15 0
BBX 11 18 1 -5
BITMAP
6380
F7C0
B8E0
3060
3060
3060
3060
3060
3060
3060
3060
3060
3060
0060
0060
0060
0060
0060
ENDCHAR
STARTCHAR i
ENCODING 105
SWIDTH 329 0
DWIDTH 8 0
BBX 6 13 1 0
BITMAP
20
60
E0
60
60
60
60
60
60
60
64
78
30
ENDCHAR
STARTCHAR j
ENCODING 106
SWIDTH 603 0
DWIDTH 14 0
BBX 11 19 2 -6
BITMAP
1380
67C0
6660
C460
C460
C460
C460
C460
C460
C460
64C0
64C0
1F00
0400
0400
0400
0400
0400
0400
ENDCHAR
STARTCHAR k
ENCODING 107
SWIDTH 549 0
DWIDTH 13 0
BBX 12 13 0 0
BITMAP
C0E0
61F0
6230
6400
6800
7000
7800
7C00
6E00
6700
6380
61C0
60E0
ENDCHAR
STARTCHAR l
ENCODING 108
SWIDTH 549 0
DWIDTH 13 0
BBX 12 18 0 0
BITMAP
3800
7C00
4400
0200
0200
0200
0600
0600
0E00
0E00
1A00
1A00
3100
3100
6100
6090
C0F0
C060
ENDCHAR
STARTCHAR m
ENCODING 109
SWIDTH 576 0
DWIDTH 14 0
BBX 12 19 1 -6
BITMAP
C300
C300
C300
C300
C300
C300
C300
C300
C300
C300
E310
FDE0
D8C0
C000
C000
C000
C000
C000
C000
ENDCHAR
STARTCHAR n
ENCODING 110
SWIDTH 521 0
DWIDTH 13 0
BBX 11 13 0 0
BITMAP
6060
E060
6020
3020
3040
1840
1840
0C80
0C80
0780
0700
0300
0300
ENDCHAR
STARTCHAR o
ENCODING 111
SWIDTH 549 0
DWIDTH 13 0
BBX 11 13 1 0
BITMAP
0E00
3180
60C0
60C0
C060
C060
C060
C060
C060
60C0
60C0
3180
0E00
ENDCHAR
STARTCHAR p
ENCODING 112
SWIDTH 549 0
DWIDTH 13 0
BBX 13 13 0 0
BITMAP
3FF0
7FF0
98C0
18C0
18C0
18C0
18C0
18C0
18C0
18C0
30C8
70F0
6060
ENDCHAR
STARTCHAR q
ENCODING 113
SWIDTH 521 0
DWIDTH 13 0
BBX 10 17 1 0
BITMAP
1E00
3300
6180
4080
C0C0
C0C0
C0C0
C0C0
FFC0
C0C0
C0C0
C0C0
C0C0
4080
6180
3300
1E00
ENDCHAR
STARTCHAR r
ENCODING 114
SWIDTH 549 0
DWIDTH 13 0
BBX 11 18 1 -5
BITMAP
0E00
3F80
61C0
C0C0
C060
C060
C060
C060
C060
C040
C0C0
E180
DE00
C000
C000
C000
C000
C000
ENDCHAR
STARTCHAR s
ENCODING 115
SWIDTH 603 0
DWIDTH 15 0
BBX 12 13 1 0
BITMAP
0FF0
3FF0
7180
E0C0
C040
C060
C060
C060
C060
4040
60C0
3180
0E00
ENDCHAR
STARTCHAR t
ENCODING 116
SWIDTH 439 0
DWIDTH 10 0
BBX 9 13 0 0
BITMAP
3F80
7F80
8C00
0C00
0C00
0C00
0C00
0C00
0C00
0C00
0C80
0F00
0600
ENDCHAR
STARTCHAR u
ENCODING 117
SWIDTH 576 0
DWIDTH 14 0
BBX 12 13 0 0
BITMAP
7080
F840
9860
1820
1830
1830
1830
1830
1830
1860
0C60
0FC0
0380
ENDCHAR
STARTCHAR v
ENCODING 118
SWIDTH 713 0
DWIDTH 17 0
BBX 15 14 1 0
BITMAP
3FFE
7FFE
9830
3018
600C
610C
C386
C386
C386
C386
C106
610C
729C
3C78
ENDCHAR
STARTCHAR w
ENCODING 119
SWIDTH 686 0
DWIDTH 17 0
BBX 15 13 1 0
BITMAP
1830
3018
600C
600C
C106
C386
C386
C386
C386
C106
638E
7EFC
1C78
ENDCHAR
STARTCHAR x
ENCODING 120
SWIDTH 493 0
DWIDTH 12 0
BBX 10 24 1 -5
BITMAP
6000
C000
DC00
7800
C000
C000
C000
6780
1F00
3000
6000
6000
C000
C000
C000
E000
7000
7F80
1FC0
00C0
0040
00C0
0F80
0700
ENDCHAR
STARTCHAR y
ENCODING 121
SWIDTH 686 0
DWIDTH 17 0
BBX 14 18 1 -5
BITMAP
C30C
6318
2310
3330
3330
3330
3330
3330
3330
3330
3330
1B60
0FC0
0300
0300
0300
0300
0300
ENDCHAR
STARTCHAR z
ENCODING 122
SWIDTH 494 0
DWIDTH 12 0
BBX 9 23 2 -5
BITMAP
2000
4000
CE00
DE00
7800
2000
4000
4000
8000
8000
8000
8000
8000
8000
8000
C000
7E00
3F00
0080
0080
0180
0F00
0E00
ENDCHAR
STARTCHAR braceleft
ENCODING 123
SWIDTH 480 0
DWIDTH 12 0
BBX 6 21 2 -5
BITMAP
0C
10
30
30
30
30
30
30
30
20
C0
20
30
30
30
30
30
30
30
10
0C
ENDCHAR
STARTCHAR bar
ENCODING 124
SWIDTH 200 0
DWIDTH 5 0
BBX 2 21 1 -5
BITMAP
C0
C0
C0
C0
C0
C0
C0
C0
C0
C0
C0
C0
C0
C0
C0
C0
C0
C0
C0
C0
C0
ENDCHAR
STARTCHAR braceright
ENCODING 125
SWIDTH 480 0
DWIDTH 12 0
BBX 6 21 3 -5
BITMAP
C0
20
30
30
30
30
30
30
30
10
0C
10
30
30
30
30
30
30
30
20
C0
ENDCHAR
STARTCHAR asciitilde
ENCODING 126
SWIDTH 549 0
DWIDTH 13 0
BBX 11 3 1 5
BITMAP
7820
FFE0
83C0
ENDCHAR
STARTCHAR uni007F
ENCODING 127
SWIDTH 250 0
DWIDTH 255 0
BBX 1 1 252 -8
BITMAP
00
ENDCHAR
STARTCHAR degree
ENCODING 161
SWIDTH 620 0
DWIDTH 15 0
BBX 11 17 2 0
BITMAP
E000
33C0
1420
1860
1860
1800
1800
1800
1800
1800
1800
1800
1800
1800
1800
1800
7E00
ENDCHAR
STARTCHAR cent
ENCODING 162
SWIDTH 247 0
DWIDTH 6 0
BBX 2 4 2 13
BITMAP
40
40
80
80
ENDCHAR
STARTCHAR sterling
ENCODING 163
SWIDTH 549 0
DWIDTH 13 0
BBX 11 11 1 0
BITMAP
0060
0180
0600
1800
6000
1800
0600
0180
0060
0000
FFE0
ENDCHAR
STARTCHAR section
ENCODING 164
SWIDTH 167 0
DWIDTH 5 0
BBX 3 16 1 0
BITMAP
20
20
20
20
20
40
40
40
40
40
40
80
80
80
80
80
ENDCHAR
STARTCHAR bullet
ENCODING 165
SWIDTH 713 0
DWIDTH 18 0
BBX 17 7 0 3
BITMAP
3C1E00
422100
814080
808080
814080
422100
3C1E00
ENDCHAR
STARTCHAR paragraph
ENCODING 166
SWIDTH 500 0
DWIDTH 12 0
BBX 11 21 0 -5
BITMAP
01C0
0320
0360
0300
0300
1FC0
0600
0600
0600
0600
0600
0600
0600
0C00
0C00
0C00
0C00
0C00
C800
9000
6000
ENDCHAR
STARTCHAR germandbls
ENCODING 167
SWIDTH 753 0
DWIDTH 18 0
BBX 14 13 2 0
BITMAP
0780
0FC0
0FC0
0FC0
0780
7338
FB7C
FFFC
FB7C
7338
0300
0300
0FC0
ENDCHAR
STARTCHAR registered
ENCODING 168
SWIDTH 753 0
DWIDTH 18 0
BBX 11 13 3 0
BITMAP
0400
0E00
1F00
3F80
7FC0
FFE0
FFE0
FFE0
7FC0
3F80
1F00
0E00
0400
ENDCHAR
STARTCHAR copyright
ENCODING 169
SWIDTH 753 0
DWIDTH 18 0
BBX 13 13 2 0
BITMAP
38E0
7DF0
FFF8
FFF8
FFF8
FFF8
7FF0
7FF0
3FE0
1FC0
0F80
0700
0200
ENDCHAR
STARTCHAR trademark
ENCODING 170
SWIDTH 753 0
DWIDTH 18 0
BBX 12 13 3 0
BITMAP
0600
0F00
1F80
3FC0
7FE0
7FE0
FFF0
FFF0
FFF0
F6F0
76E0
0600
0F00
ENDCHAR
STARTCHAR acute
ENCODING 171
SWIDTH 1042 0
DWIDTH 26 0
BBX 22 9 2 2
BITMAP
080040
100020
200010
400008
FFFFFC
400008
200010
100020
080040
ENDCHAR
STARTCHAR dieresis
ENCODING 172
SWIDTH 987 0
DWIDTH 24 0
BBX 19 9 5 2
BITMAP
080000
100000
200000
400000
FFFFE0
400000
200000
100000
080000
ENDCHAR
STARTCHAR notequal
ENCODING 173
SWIDTH 603 0
DWIDTH 14 0
BBX 9 21 1 -4
BITMAP
0800
1C00
2A00
4900
8880
0800
0800
0800
0800
0800
0800
0800
0800
0800
0800
0800
0800
0800
0800
0800
0800
ENDCHAR
STARTCHAR AE
ENCODING 174
SWIDTH 987 0
DWIDTH 24 0
BBX 19 9 0 2
BITMAP
000200
000100
000080
000040
FFFFE0
000040
000080
000100
000200
ENDCHAR
STARTCHAR Oslash
ENCODING 175
SWIDTH 603 0
DWIDTH 14 0
BBX 9 18 1 0
BITMAP
0800
0800
0800
0800
0800
0800
0800
0800
0800
0800
0800
0800
0800
8880
4900
2A00
1C00
0800
ENDCHAR
STARTCHAR infinity
ENCODING 176
SWIDTH 400 0
DWIDTH 10 0
BBX 7 7 1 10
BITMAP
38
44
82
82
82
44
38
ENDCHAR
STARTCHAR plusminus
ENCODING 177
SWIDTH 549 0
DWIDTH 14 0
BBX 13 15 0 0
BITMAP
0200
0200
0200
0200
0200
0200
FFF8
0200
0200
0200
0200
0200
0200
0000
FFF8
ENDCHAR
STARTCHAR lessequal
ENCODING 178
SWIDTH 411 0
DWIDTH 10 0
BBX 5 4 2 13
BITMAP
48
48
90
90
ENDCHAR
STARTCHAR greaterequal
ENCODING 179
SWIDTH 549 0
DWIDTH 13 0
BBX 10 11 1 0
BITMAP
C000
3000
0C00
0300
00C0
0300
0C00
3000
C000
0000
FFC0
ENDCHAR
STARTCHAR yen
ENCODING 180
SWIDTH 549 0
DWIDTH 13 0
BBX 13 13 0 0
BITMAP
8008
4010
2020
1040
0880
0500
0200
0500
0880
1040
2020
4010
8008
ENDCHAR
STARTCHAR mu
ENCODING 181
SWIDTH 713 0
DWIDTH 17 0
BBX 15 7 1 2
BITMAP
3C1E
4220
8140
8080
8140
4220
3C1E
ENDCHAR
STARTCHAR partialdiff
ENCODING 182
SWIDTH 494 0
DWIDTH 12 0
BBX 9 16 1 0
BITMAP
3800
0600
0300
0300
0180
0180
1D80
7F80
6180
C180
C180
C180
C300
C300
6600
3C00
ENDCHAR
STARTCHAR summation
ENCODING 183
SWIDTH 460 0
DWIDTH 12 0
BBX 10 10 1 3
BITMAP
1E00
7F80
7F80
FFC0
FFC0
FFC0
FFC0
7F80
7F80
1E00
ENDCHAR
STARTCHAR product
ENCODING 184
SWIDTH 549 0
DWIDTH 13 0
BBX 12 9 0 2
BITMAP
0600
0600
0000
0000
FFF0
0000
0000
0600
0600
ENDCHAR
STARTCHAR pi
ENCODING 185
SWIDTH 549 0
DWIDTH 14 0
BBX 11 9 1 2
BITMAP
0040
0080
FFE0
0200
0400
0800
FFE0
2000
4000
ENDCHAR
STARTCHAR integral
ENCODING 186
SWIDTH 549 0
DWIDTH 13 0
BBX 12 7 0 3
BITMAP
FFF0
0000
0000
FFF0
0000
0000
FFF0
ENDCHAR
STARTCHAR ordfeminine
ENCODING 187
SWIDTH 549 0
DWIDTH 13 0
BBX 11 7 1 3
BITMAP
3820
4440
8380
0000
3820
4440
8380
ENDCHAR
STARTCHAR ordmasculine
ENCODING 188
SWIDTH 1000 0
DWIDTH 24 0
BBX 18 2 2 0
BITMAP
C0C0C0
C0C0C0
ENDCHAR
STARTCHAR Omega
ENCODING 189
SWIDTH 603 0
DWIDTH 14 0
BBX 1 26 5 -6
BITMAP
80
80
80
80
80
80
80
80
80
80
80
80
80
80
80
80
80
80
80
80
80
80
80
80
80
80
ENDCHAR
STARTCHAR ae
ENCODING 190
SWIDTH 1000 0
DWIDTH 24 0
BBX 24 1 0 6
BITMAP
FFFFFF
ENDCHAR
STARTCHAR oslash
ENCODING 191
SWIDTH 658 0
DWIDTH 16 0
BBX 14 15 0 0
BITMAP
0004
0004
0004
0004
0004
0004
0004
0004
0004
0004
2004
6004
FFFC
6000
2000
ENDCHAR
STARTCHAR questiondown
ENCODING 192
SWIDTH 823 0
DWIDTH 20 0
BBX 12 15 4 0
BITMAP
4080
C1E0
E1F0
F0F0
7860
3C40
1E80
2F80
6780
E3C0
E1E0
F0F0
7870
7830
F010
ENDCHAR
STARTCHAR exclamdown
ENCODING 193
SWIDTH 686 0
DWIDTH 17 0
BBX 14 19 1 -1
BITMAP
0FC0
3FF8
383C
6018
4030
4020
4060
6060
3860
1C70
0030
0038
001C
000C
0004
3C04
7F08
87F0
01E0
ENDCHAR
STARTCHAR logicalnot
ENCODING 194
SWIDTH 795 0
DWIDTH 20 0
BBX 17 18 1 0
BITMAP
1E1C00
7F3E00
C7CF00
838700
818600
C18C00
E19800
71B000
39B800
199C00
118E00
018E00
018E00
018E00
198E00
3F0F80
5E0F00
0C0600
ENDCHAR
STARTCHAR radical
ENCODING 195
SWIDTH 987 0
DWIDTH 24 0
BBX 17 18 4 -5
BITMAP
020000
0C1E00
187F00
30C380
310180
720180
740180
74C180
79C300
390300
390600
5C8C00
4C7000
8C0000
8C0000
8C0000
980000
700000
ENDCHAR
STARTCHAR florin
ENCODING 196
SWIDTH 768 0
DWIDTH 19 0
BBX 16 16 1 0
BITMAP
07E0
1818
300C
6006
4C32
8E71
87E1
83C1
83C1
87E1
8E71
4C32
6006
300C
1818
07E0
ENDCHAR
STARTCHAR approxequal
ENCODING 197
SWIDTH 768 0
DWIDTH 19 0
BBX 16 16 1 0
BITMAP
07E0
1818
318C
6186
4182
8181
8181
BFFD
BFFD
8181
8181
4182
6186
318C
1818
07E0
ENDCHAR
STARTCHAR Delta
ENCODING 198
SWIDTH 823 0
DWIDTH 20 0
BBX 17 17 1 0
BITMAP
07F080
180D00
300600
600700
400900
801080
802080
804080
808080
810080
820080
840080
480100
700300
300600
580C00
87F000
ENDCHAR
STARTCHAR guillemotleft
ENCODING 199
SWIDTH 768 0
DWIDTH 18 0
BBX 16 13 1 0
BITMAP
07E0
1818
300C
6006
4002
8001
8001
8001
8001
8001
8001
8001
8001
ENDCHAR
STARTCHAR guillemotright
ENCODING 200
SWIDTH 768 0
DWIDTH 18 0
BBX 16 13 1 0
BITMAP
8001
8001
8001
8001
8001
8001
8001
8001
4002
6006
300C
1818
07E0
ENDCHAR
STARTCHAR ellipsis
ENCODING 201
SWIDTH 713 0
DWIDTH 17 0
BBX 15 13 1 0
BITMAP
FFE0
0018
000C
0004
0002
0002
0002
0002
0002
0004
000C
0018
FFE0
ENDCHAR
STARTCHAR uni00A0
ENCODING 202
SWIDTH 713 0
DWIDTH 17 0
BBX 15 16 1 -3
BITMAP
FFE0
0018
000C
0004
0002
0002
0002
0002
0002
0004
000C
0018
FFE0
0000
0000
FFFE
ENDCHAR
STARTCHAR Agrave
ENCODING 203
SWIDTH 713 0
DWIDTH 17 0
BBX 15 15 1 -1
BITMAP
0008
0FFE
3010
6020
4020
8040
8040
8080
8080
8100
4100
6200
3200
0FFE
0400
ENDCHAR
STARTCHAR Atilde
ENCODING 204
SWIDTH 713 0
DWIDTH 17 0
BBX 15 13 1 0
BITMAP
0FFE
3000
6000
4000
8000
8000
8000
8000
8000
4000
6000
3000
0FFE
ENDCHAR
STARTCHAR Otilde
ENCODING 205
SWIDTH 713 0
DWIDTH 17 0
BBX 15 16 1 -3
BITMAP
0FFE
3000
6000
4000
8000
8000
8000
8000
8000
4000
6000
3000
0FFE
0000
0000
FFFE
ENDCHAR
STARTCHAR OE
ENCODING 206
SWIDTH 713 0
DWIDTH 17 0
BBX 12 13 2 0
BITMAP
1FF0
6000
4000
8000
8000
8000
FFF0
8000
8000
8000
4000
6000
1FF0
ENDCHAR
STARTCHAR oe
ENCODING 207
SWIDTH 713 0
DWIDTH 17 0
BBX 12 15 2 -1
BITMAP
0020
1FF0
6040
4080
8080
8100
8100
FFF0
8200
8400
8400
4800
6800
1FF0
1000
ENDCHAR
STARTCHAR endash
ENCODING 208
SWIDTH 768 0
DWIDTH 18 0
BBX 16 16 1 0
BITMAP
0001
0002
0004
0008
0010
0020
0040
0080
0100
0200
0400
0800
1000
2000
4000
FFFE
ENDCHAR
STARTCHAR emdash
ENCODING 209
SWIDTH 713 0
DWIDTH 17 0
BBX 15 16 1 0
BITMAP
FFFE
C002
6004
6004
3008
3008
1810
1810
0C20
0C20
0640
0640
0380
0380
0100
0100
ENDCHAR
STARTCHAR quotedblleft
ENCODING 210
SWIDTH 790 0
DWIDTH 19 0
BBX 16 16 1 0
BITMAP
07E0
1818
300C
6006
4FC2
8661
8661
8661
87C1
86C1
8661
4F32
6006
300C
1818
07E0
ENDCHAR
STARTCHAR quotedblright
ENCODING 211
SWIDTH 790 0
DWIDTH 19 0
BBX 16 16 1 0
BITMAP
07E0
1818
300C
6006
43A2
8661
8C21
8C01
8C01
8C01
8621
43C2
6006
300C
1818
07E0
ENDCHAR
STARTCHAR quoteleft
ENCODING 212
SWIDTH 890 0
DWIDTH 22 0
BBX 19 9 1 7
BITMAP
FEE0E0
9260C0
105140
105140
104A40
104A40
104440
104440
38E0E0
ENDCHAR
STARTCHAR quoteright
ENCODING 213
SWIDTH 823 0
DWIDTH 20 0
BBX 16 21 2 -3
BITMAP
FFFF
300C
300C
300C
300C
300C
300C
300C
300C
300C
300C
300C
300C
300C
300C
300C
300C
300C
300C
300C
FC3F
ENDCHAR
STARTCHAR divide
ENCODING 214
SWIDTH 549 0
DWIDTH 13 0
BBX 13 18 0 0
BITMAP
0008
0008
0010
0010
0020
0020
0040
0040
0080
0080
4100
C100
2200
2200
1400
1400
0800
0800
ENDCHAR
STARTCHAR lozenge
ENCODING 215
SWIDTH 250 0
DWIDTH 13 0
BBX 2 2 5 6
BITMAP
C0
C0
ENDCHAR
STARTCHAR ydieresis
ENCODING 216
SWIDTH 713 0
DWIDTH 18 0
BBX 16 7 1 0
BITMAP
FFFF
0001
0001
0001
0001
0001
0001
ENDCHAR
STARTCHAR Ydieresis
ENCODING 217
SWIDTH 603 0
DWIDTH 15 0
BBX 11 12 2 0
BITMAP
0400
0400
0A00
0A00
1100
1100
2080
2080
4040
4040
8020
8020
ENDCHAR
STARTCHAR fraction
ENCODING 218
SWIDTH 603 0
DWIDTH 15 0
BBX 11 12 2 0
BITMAP
8020
8020
4040
4040
2080
2080
1100
1100
0A00
0A00
0400
0400
ENDCHAR
STARTCHAR currency
ENCODING 219
SWIDTH 1042 0
DWIDTH 26 0
BBX 24 13 0 0
BITMAP
020040
040020
080010
1FFFF8
200004
400002
800001
400002
200004
1FFFF8
080010
040020
020040
ENDCHAR
STARTCHAR guilsinglleft
ENCODING 220
SWIDTH 987 0
DWIDTH 24 0
BBX 22 13 1 0
BITMAP
020000
040000
080000
1FFFFC
200000
400000
800000
400000
200000
1FFFFC
080000
040000
020000
ENDCHAR
STARTCHAR guilsinglright
ENCODING 221
SWIDTH 603 0
DWIDTH 15 0
BBX 13 22 1 0
BITMAP
0200
0500
0880
1040
3060
5050
9048
1040
1040
1040
1040
1040
1040
1040
1040
1040
1040
1040
1040
1040
1040
1040
ENDCHAR
STARTCHAR uniFB01
ENCODING 222
SWIDTH 987 0
DWIDTH 24 0
BBX 22 13 1 0
BITMAP
000100
000080
000040
FFFFE0
000010
000008
000004
000008
000010
FFFFE0
000040
000080
000100
ENDCHAR
STARTCHAR uniFB02
ENCODING 223
SWIDTH 603 0
DWIDTH 15 0
BBX 13 22 1 0
BITMAP
1040
1040
1040
1040
1040
1040
1040
1040
1040
1040
1040
1040
1040
1040
1040
9048
5050
3060
1040
0880
0500
0200
ENDCHAR
STARTCHAR daggerdbl
ENCODING 224
SWIDTH 494 0
DWIDTH 12 0
BBX 9 16 1 0
BITMAP
0800
0800
1400
1400
2200
4100
4100
8080
8080
4100
4100
2200
1400
1400
0800
0800
ENDCHAR
STARTCHAR periodcentered
ENCODING 225
SWIDTH 329 0
DWIDTH 8 0
BBX 6 23 1 -7
BITMAP
04
04
08
08
10
10
20
20
40
40
80
80
80
40
40
20
20
10
10
08
08
04
04
ENDCHAR
STARTCHAR quotesinglbase
ENCODING 226
SWIDTH 790 0
DWIDTH 19 0
BBX 16 16 1 0
BITMAP
07E0
1818
300C
67C6
4422
8421
8421
8421
87C1
8421
8421
4422
6426
300C
1818
07E0
ENDCHAR
STARTCHAR quotedblbase
ENCODING 227
SWIDTH 790 0
DWIDTH 18 0
BBX 16 16 1 0
BITMAP
07E0
1818
300C
6386
4442
8821
8801
8801
8801
8801
8821
4442
6386
300C
1818
07E0
ENDCHAR
STARTCHAR perthousand
ENCODING 228
SWIDTH 786 0
DWIDTH 19 0
BBX 17 9 0 7
BITMAP
FEC180
10C180
10A280
10A280
109480
109480
108880
108880
108080
ENDCHAR
STARTCHAR Acircumflex
ENCODING 229
SWIDTH 713 0
DWIDTH 17 0
BBX 15 20 1 -3
BITMAP
FFFE
6006
3002
1802
0C00
0600
0300
0180
00C0
0060
0040
0080
0100
0200
0400
0802
1002
2006
7FFE
FFFE
ENDCHAR
STARTCHAR Ecircumflex
ENCODING 230
SWIDTH 384 0
DWIDTH 9 0
BBX 7 30 2 -8
BITMAP
02
04
08
08
10
10
20
20
20
40
40
40
40
80
80
80
80
80
80
80
80
80
80
80
80
80
80
80
80
80
ENDCHAR
STARTCHAR Aacute
ENCODING 231
SWIDTH 384 0
DWIDTH 9 0
BBX 1 31 2 -8
BITMAP
80
80
80
80
80
80
80
80
80
80
80
80
80
80
80
80
80
80
80
80
80
80
80
80
80
80
80
80
80
80
80
ENDCHAR
STARTCHAR Edieresis
ENCODING 232
SWIDTH 384 0
DWIDTH 9 0
BBX 7 30 2 -7
BITMAP
80
80
80
80
80
80
80
80
80
80
80
80
80
80
80
80
80
40
40
40
40
20
20
20
10
10
08
08
04
02
ENDCHAR
STARTCHAR Egrave
ENCODING 233
SWIDTH 384 0
DWIDTH 9 0
BBX 8 30 0 -8
BITMAP
FF
80
80
80
80
80
80
80
80
80
80
80
80
80
80
80
80
80
80
80
80
80
80
80
80
80
80
80
80
80
ENDCHAR
STARTCHAR Iacute
ENCODING 234
SWIDTH 384 0
DWIDTH 9 0
BBX 1 31 0 -8
BITMAP
80
80
80
80
80
80
80
80
80
80
80
80
80
80
80
80
80
80
80
80
80
80
80
80
80
80
80
80
80
80
80
ENDCHAR
STARTCHAR Icircumflex
ENCODING 235
SWIDTH 384 0
DWIDTH 9 0
BBX 8 25 0 -2
BITMAP
80
80
80
80
80
80
80
80
80
80
80
80
80
80
80
80
80
80
80
80
80
80
80
80
FF
ENDCHAR
STARTCHAR Idieresis
ENCODING 236
SWIDTH 494 0
DWIDTH 12 0
BBX 6 30 5 -8
BITMAP
1C
20
40
80
80
80
80
80
80
80
80
80
80
80
80
80
80
80
80
80
80
80
80
80
80
80
80
80
80
80
ENDCHAR
STARTCHAR Igrave
ENCODING 237
SWIDTH 494 0
DWIDTH 12 0
BBX 4 31 2 -8
BITMAP
10
10
10
10
10
10
10
10
10
10
10
10
10
20
C0
20
10
10
10
10
10
10
10
10
10
10
10
10
10
10
10
ENDCHAR
STARTCHAR Oacute
ENCODING 238
SWIDTH 494 0
DWIDTH 12 0
BBX 6 25 5 -2
BITMAP
80
80
80
80
80
80
80
80
80
80
80
80
80
80
80
80
80
80
80
80
80
80
40
20
1C
ENDCHAR
STARTCHAR Ocircumflex
ENCODING 239
SWIDTH 494 0
DWIDTH 12 0
BBX 1 31 5 -8
BITMAP
80
80
80
80
80
80
80
80
80
80
80
80
80
80
80
80
80
80
80
80
80
80
80
80
80
80
80
80
80
80
80
ENDCHAR
STARTCHAR Ograve
ENCODING 241
SWIDTH 329 0
DWIDTH 8 0
BBX 6 23 1 -7
BITMAP
80
80
40
40
20
20
10
10
08
08
04
04
04
08
08
10
10
20
20
40
40
80
80
ENDCHAR
STARTCHAR Uacute
ENCODING 242
SWIDTH 274 0
DWIDTH 7 0
BBX 5 24 1 -2
BITMAP
18
30
20
20
20
20
20
20
20
20
20
20
20
20
20
20
20
20
20
20
20
20
60
C0
ENDCHAR
STARTCHAR Ucircumflex
ENCODING 243
SWIDTH 686 0
DWIDTH 16 0
BBX 8 30 8 -8
BITMAP
07
0B
10
10
20
20
20
40
40
40
40
40
80
80
80
80
80
80
80
80
80
80
80
80
80
80
80
80
80
80
ENDCHAR
STARTCHAR Ugrave
ENCODING 244
SWIDTH 686 0
DWIDTH 16 0
BBX 1 31 8 -8
BITMAP
80
80
80
80
80
80
80
80
80
80
80
80
80
80
80
80
80
80
80
80
80
80
80
80
80
80
80
80
80
80
80
ENDCHAR
STARTCHAR dotlessi
ENCODING 245
SWIDTH 686 0
DWIDTH 16 0
BBX 8 24 1 -1
BITMAP
01
01
01
01
01
01
01
01
01
01
01
01
02
02
02
02
02
04
04
04
08
08
D0
E0
ENDCHAR
STARTCHAR circumflex
ENCODING 246
SWIDTH 384 0
DWIDTH 9 0
BBX 7 30 1 -8
BITMAP
80
40
20
20
10
10
08
08
08
04
04
04
04
02
02
02
02
02
02
02
02
02
02
02
02
02
02
02
02
02
ENDCHAR
STARTCHAR tilde
ENCODING 247
SWIDTH 384 0
DWIDTH 9 0
BBX 1 31 7 -8
BITMAP
80
80
80
80
80
80
80
80
80
80
80
80
80
80
80
80
80
80
80
80
80
80
80
80
80
80
80
80
80
80
80
ENDCHAR
STARTCHAR macron
ENCODING 248
SWIDTH 384 0
DWIDTH 9 0
BBX 7 30 1 -7
BITMAP
02
02
02
02
02
02
02
02
02
02
02
02
02
02
02
02
02
04
04
04
04
08
08
08
10
10
20
20
40
80
ENDCHAR
STARTCHAR breve
ENCODING 249
SWIDTH 384 0
DWIDTH 9 0
BBX 8 30 0 -8
BITMAP
FF
01
01
01
01
01
01
01
01
01
01
01
01
01
01
01
01
01
01
01
01
01
01
01
01
01
01
01
01
01
ENDCHAR
STARTCHAR dotaccent
ENCODING 250
SWIDTH 384 0
DWIDTH 9 0
BBX 1 31 7 -8
BITMAP
80
80
80
80
80
80
80
80
80
80
80
80
80
80
80
80
80
80
80
80
80
80
80
80
80
80
80
80
80
80
80
ENDCHAR
STARTCHAR ring
ENCODING 251
SWIDTH 384 0
DWIDTH 9 0
BBX 8 25 0 -2
BITMAP
01
01
01
01
01
01
01
01
01
01
01
01
01
01
01
01
01
01
01
01
01
01
01
01
FF
ENDCHAR
STARTCHAR cedilla
ENCODING 252
SWIDTH 494 0
DWIDTH 12 0
BBX 6 30 0 -8
BITMAP
E0
10
08
04
04
04
04
04
04
04
04
04
04
04
04
04
04
04
04
04
04
04
04
04
04
04
04
04
04
04
ENDCHAR
STARTCHAR hungarumlaut
ENCODING 253
SWIDTH 494 0
DWIDTH 12 0
BBX 4 31 5 -8
BITMAP
80
80
80
80
80
80
80
80
80
80
80
80
80
40
30
40
80
80
80
80
80
80
80
80
80
80
80
80
80
80
80
ENDCHAR
STARTCHAR ogonek
ENCODING 254
SWIDTH 494 0
DWIDTH 12 0
BBX 6 25 0 -2
BITMAP
04
04
04
04
04
04
04
04
04
04
04
04
04
04
04
04
04
04
04
04
04
04
08
10
E0
ENDCHAR
STARTCHAR caron
ENCODING 255
SWIDTH 250 0
DWIDTH 19 0
BBX 17 19 1 0
BITMAP
001C00
003800
007000
006000
0F5E00
3FBF00
7FFF80
7FFE00
FFFC00
FFFC00
FFFC00
FFFE00
FFFF80
FFFF80
7FFF00
7FFF00
3FFE00
1FFE00
0F3800
ENDCHAR
ENDFONT
